<?xml version="1.0" encoding="UTF-8" standalone="no"?>
<!DOCTYPE svg PUBLIC "-//W3C//DTD SVG 1.1//EN"
 "http://www.w3.org/Graphics/SVG/1.1/DTD/svg11.dtd">
<!-- Generated by graphviz version 2.40.1 (20161225.0304)
 -->
<!-- Title: dependencies Pages: 1 -->
<svg width="918pt" height="211pt"
 viewBox="0.00 0.00 918.00 211.00" xmlns="http://www.w3.org/2000/svg" xmlns:xlink="http://www.w3.org/1999/xlink">
<g id="graph0" class="graph" transform="scale(1 1) rotate(0) translate(4 207)">
<title>dependencies</title>
<polygon fill="#ffffff" stroke="transparent" points="-4,4 -4,-207 914,-207 914,4 -4,4"/>
<text text-anchor="start" x="434.0091" y="-42.4" font-family="sans-serif" font-weight="bold" font-size="14.00" fill="#000000">Legend</text>
<polygon fill="#ffffb3" stroke="transparent" points="221,-10 221,-30 241,-30 241,-10 221,-10"/>
<text text-anchor="start" x="244.629" y="-15.4" font-family="sans-serif" font-size="14.00" fill="#000000"> &#160;Declarations</text>
<polygon fill="#8dd3c7" stroke="transparent" points="334,-10 334,-30 354,-30 354,-10 334,-10"/>
<text text-anchor="start" x="357.7251" y="-15.4" font-family="sans-serif" font-size="14.00" fill="#000000"> &#160;Module</text>
<polygon fill="#80b1d3" stroke="transparent" points="420,-10 420,-30 440,-30 440,-10 420,-10"/>
<text text-anchor="start" x="443.7812" y="-15.4" font-family="sans-serif" font-size="14.00" fill="#000000"> &#160;Bootstrap</text>
<polygon fill="#fdb462" stroke="transparent" points="517,-10 517,-30 537,-30 537,-10 517,-10"/>
<text text-anchor="start" x="540.6732" y="-15.4" font-family="sans-serif" font-size="14.00" fill="#000000"> &#160;Providers</text>
<polygon fill="#fb8072" stroke="transparent" points="613,-10 613,-30 633,-30 633,-10 613,-10"/>
<text text-anchor="start" x="636.7258" y="-15.4" font-family="sans-serif" font-size="14.00" fill="#000000"> &#160;Exports</text>
<g id="clust1" class="cluster">
<title>cluster_UsersModule</title>
<polygon fill="none" stroke="#000000" stroke-dasharray="1,5" points="8,-70 8,-195 902,-195 902,-70 8,-70"/>
</g>
<g id="clust2" class="cluster">
<title>cluster_UsersModule_declarations</title>
<polygon fill="none" stroke="#000000" points="301,-78 301,-130 894,-130 894,-78 301,-78"/>
</g>
<g id="clust7" class="cluster">
<title>cluster_UsersModule_imports</title>
<polygon fill="none" stroke="#000000" points="16,-78 16,-130 293,-130 293,-78 16,-78"/>
</g>
<!-- UserCreateComponent -->
<g id="node1" class="node">
<title>UserCreateComponent</title>
<polygon fill="#ffffb3" stroke="#000000" points="886.2907,-122 741.7093,-122 741.7093,-86 886.2907,-86 886.2907,-122"/>
<text text-anchor="middle" x="814" y="-99.8" font-family="Times,serif" font-size="14.00" fill="#000000">UserCreateComponent</text>
</g>
<!-- UsersModule -->
<g id="node5" class="node">
<title>UsersModule</title>
<polygon fill="#8dd3c7" stroke="#000000" points="492.9218,-187 489.9218,-191 468.9218,-191 465.9218,-187 401.0782,-187 401.0782,-151 492.9218,-151 492.9218,-187"/>
<text text-anchor="middle" x="447" y="-164.8" font-family="Times,serif" font-size="14.00" fill="#000000">UsersModule</text>
</g>
<!-- UserCreateComponent&#45;&gt;UsersModule -->
<g id="edge1" class="edge">
<title>UserCreateComponent&#45;&gt;UsersModule</title>
<path fill="none" stroke="#000000" d="M814,-122.2843C814,-143.3211 814,-175 814,-175 814,-175 502.7388,-175 502.7388,-175"/>
<polygon fill="#000000" stroke="#000000" points="502.7388,-171.5001 492.7388,-175 502.7387,-178.5001 502.7388,-171.5001"/>
</g>
<!-- UserEditComponent -->
<g id="node2" class="node">
<title>UserEditComponent</title>
<polygon fill="#ffffb3" stroke="#000000" points="723.5926,-122 592.4074,-122 592.4074,-86 723.5926,-86 723.5926,-122"/>
<text text-anchor="middle" x="658" y="-99.8" font-family="Times,serif" font-size="14.00" fill="#000000">UserEditComponent</text>
</g>
<!-- UserEditComponent&#45;&gt;UsersModule -->
<g id="edge2" class="edge">
<title>UserEditComponent&#45;&gt;UsersModule</title>
<path fill="none" stroke="#000000" d="M658,-122.0225C658,-139.3734 658,-163 658,-163 658,-163 502.7839,-163 502.7839,-163"/>
<polygon fill="#000000" stroke="#000000" points="502.7839,-159.5001 492.7839,-163 502.7838,-166.5001 502.7839,-159.5001"/>
</g>
<!-- UsersComponent -->
<g id="node3" class="node">
<title>UsersComponent</title>
<polygon fill="#ffffb3" stroke="#000000" points="574.7036,-122 461.2964,-122 461.2964,-86 574.7036,-86 574.7036,-122"/>
<text text-anchor="middle" x="518" y="-99.8" font-family="Times,serif" font-size="14.00" fill="#000000">UsersComponent</text>
</g>
<!-- UsersComponent&#45;&gt;UsersModule -->
<g id="edge3" class="edge">
<title>UsersComponent&#45;&gt;UsersModule</title>
<path fill="none" stroke="#000000" d="M477.0544,-122.1061C477.0544,-122.1061 477.0544,-140.991 477.0544,-140.991"/>
<polygon fill="#000000" stroke="#000000" points="473.5544,-140.9909 477.0544,-150.991 480.5544,-140.991 473.5544,-140.9909"/>
</g>
<!-- UsersListComponent -->
<g id="node4" class="node">
<title>UsersListComponent</title>
<polygon fill="#ffffb3" stroke="#000000" points="443.4818,-122 308.5182,-122 308.5182,-86 443.4818,-86 443.4818,-122"/>
<text text-anchor="middle" x="376" y="-99.8" font-family="Times,serif" font-size="14.00" fill="#000000">UsersListComponent</text>
</g>
<!-- UsersListComponent&#45;&gt;UsersModule -->
<g id="edge4" class="edge">
<title>UsersListComponent&#45;&gt;UsersModule</title>
<path fill="none" stroke="#000000" d="M422.3903,-122.1061C422.3903,-122.1061 422.3903,-140.991 422.3903,-140.991"/>
<polygon fill="#000000" stroke="#000000" points="418.8903,-140.9909 422.3903,-150.991 425.8903,-140.991 418.8903,-140.9909"/>
</g>
<!-- MaterialModule -->
<g id="node6" class="node">
<title>MaterialModule</title>
<polygon fill="#8dd3c7" stroke="#000000" points="285.4706,-122 282.4706,-126 261.4706,-126 258.4706,-122 178.5294,-122 178.5294,-86 285.4706,-86 285.4706,-122"/>
<text text-anchor="middle" x="232" y="-99.8" font-family="Times,serif" font-size="14.00" fill="#000000">MaterialModule</text>
</g>
<!-- MaterialModule&#45;&gt;UsersModule -->
<g id="edge5" class="edge">
<title>MaterialModule&#45;&gt;UsersModule</title>
<path fill="none" stroke="#000000" d="M232,-122.0225C232,-139.3734 232,-163 232,-163 232,-163 391.1408,-163 391.1408,-163"/>
<polygon fill="#000000" stroke="#000000" points="391.1409,-166.5001 401.1408,-163 391.1408,-159.5001 391.1409,-166.5001"/>
</g>
<!-- UsersRoutingModule -->
<g id="node7" class="node">
<title>UsersRoutingModule</title>
<polygon fill="#8dd3c7" stroke="#000000" points="160.0394,-122 157.0394,-126 136.0394,-126 133.0394,-122 23.9606,-122 23.9606,-86 160.0394,-86 160.0394,-122"/>
<text text-anchor="middle" x="92" y="-99.8" font-family="Times,serif" font-size="14.00" fill="#000000">UsersRoutingModule</text>
</g>
<!-- UsersRoutingModule&#45;&gt;UsersModule -->
<g id="edge6" class="edge">
<title>UsersRoutingModule&#45;&gt;UsersModule</title>
<path fill="none" stroke="#000000" d="M92,-122.2843C92,-143.3211 92,-175 92,-175 92,-175 390.9539,-175 390.9539,-175"/>
<polygon fill="#000000" stroke="#000000" points="390.9539,-178.5001 400.9539,-175 390.9539,-171.5001 390.9539,-178.5001"/>
</g>
</g>
</svg>
