<?xml version="1.0" encoding="UTF-8" standalone="no"?>
<!DOCTYPE svg PUBLIC "-//W3C//DTD SVG 1.1//EN"
 "http://www.w3.org/Graphics/SVG/1.1/DTD/svg11.dtd">
<!-- Generated by graphviz version 2.40.1 (20161225.0304)
 -->
<!-- Title: dependencies Pages: 1 -->
<svg width="1122pt" height="284pt"
 viewBox="0.00 0.00 1122.00 284.00" xmlns="http://www.w3.org/2000/svg" xmlns:xlink="http://www.w3.org/1999/xlink">
<g id="graph0" class="graph" transform="scale(1 1) rotate(0) translate(4 280)">
<title>dependencies</title>
<polygon fill="#ffffff" stroke="transparent" points="-4,4 -4,-280 1118,-280 1118,4 -4,4"/>
<text text-anchor="start" x="536.0091" y="-42.4" font-family="sans-serif" font-weight="bold" font-size="14.00" fill="#000000">Legend</text>
<polygon fill="#ffffb3" stroke="transparent" points="323,-10 323,-30 343,-30 343,-10 323,-10"/>
<text text-anchor="start" x="346.629" y="-15.4" font-family="sans-serif" font-size="14.00" fill="#000000"> &#160;Declarations</text>
<polygon fill="#8dd3c7" stroke="transparent" points="436,-10 436,-30 456,-30 456,-10 436,-10"/>
<text text-anchor="start" x="459.7251" y="-15.4" font-family="sans-serif" font-size="14.00" fill="#000000"> &#160;Module</text>
<polygon fill="#80b1d3" stroke="transparent" points="522,-10 522,-30 542,-30 542,-10 522,-10"/>
<text text-anchor="start" x="545.7812" y="-15.4" font-family="sans-serif" font-size="14.00" fill="#000000"> &#160;Bootstrap</text>
<polygon fill="#fdb462" stroke="transparent" points="619,-10 619,-30 639,-30 639,-10 619,-10"/>
<text text-anchor="start" x="642.6732" y="-15.4" font-family="sans-serif" font-size="14.00" fill="#000000"> &#160;Providers</text>
<polygon fill="#fb8072" stroke="transparent" points="715,-10 715,-30 735,-30 735,-10 715,-10"/>
<text text-anchor="start" x="738.7258" y="-15.4" font-family="sans-serif" font-size="14.00" fill="#000000"> &#160;Exports</text>
<g id="clust1" class="cluster">
<title>cluster_AppModule</title>
<polygon fill="none" stroke="#000000" stroke-dasharray="1,5" points="8,-70 8,-268 1106,-268 1106,-70 8,-70"/>
</g>
<g id="clust2" class="cluster">
<title>cluster_AppModule_declarations</title>
<polygon fill="none" stroke="#000000" points="434,-78 434,-130 1098,-130 1098,-78 434,-78"/>
</g>
<g id="clust8" class="cluster">
<title>cluster_AppModule_imports</title>
<polygon fill="none" stroke="#000000" points="282,-78 282,-130 426,-130 426,-78 282,-78"/>
</g>
<g id="clust10" class="cluster">
<title>cluster_AppModule_bootstrap</title>
<polygon fill="none" stroke="#000000" points="503,-208 503,-260 627,-260 627,-208 503,-208"/>
</g>
<g id="clust11" class="cluster">
<title>cluster_AppModule_providers</title>
<polygon fill="none" stroke="#000000" points="16,-78 16,-130 274,-130 274,-78 16,-78"/>
</g>
<!-- AppComponent -->
<g id="node1" class="node">
<title>AppComponent</title>
<polygon fill="#ffffb3" stroke="#000000" points="1089.9399,-122 984.0601,-122 984.0601,-86 1089.9399,-86 1089.9399,-122"/>
<text text-anchor="middle" x="1037" y="-99.8" font-family="Times,serif" font-size="14.00" fill="#000000">AppComponent</text>
</g>
<!-- AppModule -->
<g id="node6" class="node">
<title>AppModule</title>
<polygon fill="#8dd3c7" stroke="#000000" points="606.6571,-187 603.6571,-191 582.6571,-191 579.6571,-187 523.3429,-187 523.3429,-151 606.6571,-151 606.6571,-187"/>
<text text-anchor="middle" x="565" y="-164.8" font-family="Times,serif" font-size="14.00" fill="#000000">AppModule</text>
</g>
<!-- AppComponent&#45;&gt;AppModule -->
<g id="edge1" class="edge">
<title>AppComponent&#45;&gt;AppModule</title>
<path fill="none" stroke="#000000" d="M1037,-122.2921C1037,-144.2057 1037,-178 1037,-178 1037,-178 616.8869,-178 616.8869,-178"/>
<polygon fill="#000000" stroke="#000000" points="616.8869,-174.5001 606.8869,-178 616.8868,-181.5001 616.8869,-174.5001"/>
</g>
<!-- FooterComponent -->
<g id="node2" class="node">
<title>FooterComponent</title>
<polygon fill="#ffffb3" stroke="#000000" points="965.8809,-122 848.1191,-122 848.1191,-86 965.8809,-86 965.8809,-122"/>
<text text-anchor="middle" x="907" y="-99.8" font-family="Times,serif" font-size="14.00" fill="#000000">FooterComponent</text>
</g>
<!-- FooterComponent&#45;&gt;AppModule -->
<g id="edge2" class="edge">
<title>FooterComponent&#45;&gt;AppModule</title>
<path fill="none" stroke="#000000" d="M907,-122.1061C907,-141.3391 907,-169 907,-169 907,-169 616.9359,-169 616.9359,-169"/>
<polygon fill="#000000" stroke="#000000" points="616.9359,-165.5001 606.9359,-169 616.9359,-172.5001 616.9359,-165.5001"/>
</g>
<!-- HeaderComponent -->
<g id="node3" class="node">
<title>HeaderComponent</title>
<polygon fill="#ffffb3" stroke="#000000" points="829.7437,-122 708.2563,-122 708.2563,-86 829.7437,-86 829.7437,-122"/>
<text text-anchor="middle" x="769" y="-99.8" font-family="Times,serif" font-size="14.00" fill="#000000">HeaderComponent</text>
</g>
<!-- HeaderComponent&#45;&gt;AppModule -->
<g id="edge3" class="edge">
<title>HeaderComponent&#45;&gt;AppModule</title>
<path fill="none" stroke="#000000" d="M769,-122.027C769,-138.3976 769,-160 769,-160 769,-160 616.7747,-160 616.7747,-160"/>
<polygon fill="#000000" stroke="#000000" points="616.7747,-156.5001 606.7747,-160 616.7747,-163.5001 616.7747,-156.5001"/>
</g>
<!-- HomeComponent -->
<g id="node4" class="node">
<title>HomeComponent</title>
<polygon fill="#ffffb3" stroke="#000000" points="689.5451,-122 574.4549,-122 574.4549,-86 689.5451,-86 689.5451,-122"/>
<text text-anchor="middle" x="632" y="-99.8" font-family="Times,serif" font-size="14.00" fill="#000000">HomeComponent</text>
</g>
<!-- HomeComponent&#45;&gt;AppModule -->
<g id="edge4" class="edge">
<title>HomeComponent&#45;&gt;AppModule</title>
<path fill="none" stroke="#000000" d="M590.5281,-122.1061C590.5281,-122.1061 590.5281,-140.991 590.5281,-140.991"/>
<polygon fill="#000000" stroke="#000000" points="587.0281,-140.9909 590.5281,-150.991 594.0281,-140.991 587.0281,-140.9909"/>
</g>
<!-- LoginComponent -->
<g id="node5" class="node">
<title>LoginComponent</title>
<polygon fill="#ffffb3" stroke="#000000" points="556.2758,-122 441.7242,-122 441.7242,-86 556.2758,-86 556.2758,-122"/>
<text text-anchor="middle" x="499" y="-99.8" font-family="Times,serif" font-size="14.00" fill="#000000">LoginComponent</text>
</g>
<!-- LoginComponent&#45;&gt;AppModule -->
<g id="edge5" class="edge">
<title>LoginComponent&#45;&gt;AppModule</title>
<path fill="none" stroke="#000000" d="M539.7798,-122.1061C539.7798,-122.1061 539.7798,-140.991 539.7798,-140.991"/>
<polygon fill="#000000" stroke="#000000" points="536.2799,-140.9909 539.7798,-150.991 543.2799,-140.991 536.2799,-140.9909"/>
</g>
<!-- AppComponent  -->
<g id="node8" class="node">
<title>AppComponent </title>
<polygon fill="#80b1d3" stroke="#000000" points="619.439,-252 510.561,-252 510.561,-216 619.439,-216 619.439,-252"/>
<text text-anchor="middle" x="565" y="-229.8" font-family="Times,serif" font-size="14.00" fill="#000000">AppComponent </text>
</g>
<!-- AppModule&#45;&gt;AppComponent  -->
<g id="edge7" class="edge">
<title>AppModule&#45;&gt;AppComponent </title>
<path fill="none" stroke="#000000" stroke-dasharray="1,5" d="M565,-187.1061C565,-187.1061 565,-205.991 565,-205.991"/>
<polygon fill="#000000" stroke="#000000" points="561.5001,-205.9909 565,-215.991 568.5001,-205.991 561.5001,-205.9909"/>
</g>
<!-- AppRoutingModule -->
<g id="node7" class="node">
<title>AppRoutingModule</title>
<polygon fill="#8dd3c7" stroke="#000000" points="418.2744,-122 415.2744,-126 394.2744,-126 391.2744,-122 289.7256,-122 289.7256,-86 418.2744,-86 418.2744,-122"/>
<text text-anchor="middle" x="354" y="-99.8" font-family="Times,serif" font-size="14.00" fill="#000000">AppRoutingModule</text>
</g>
<!-- AppRoutingModule&#45;&gt;AppModule -->
<g id="edge6" class="edge">
<title>AppRoutingModule&#45;&gt;AppModule</title>
<path fill="none" stroke="#000000" d="M354,-122.027C354,-138.3976 354,-160 354,-160 354,-160 513.3132,-160 513.3132,-160"/>
<polygon fill="#000000" stroke="#000000" points="513.3132,-163.5001 523.3132,-160 513.3132,-156.5001 513.3132,-163.5001"/>
</g>
<!-- Apiservice -->
<g id="node9" class="node">
<title>Apiservice</title>
<ellipse fill="#fdb462" stroke="#000000" cx="213" cy="-104" rx="52.7257" ry="18"/>
<text text-anchor="middle" x="213" y="-99.8" font-family="Times,serif" font-size="14.00" fill="#000000">Apiservice</text>
</g>
<!-- Apiservice&#45;&gt;AppModule -->
<g id="edge8" class="edge">
<title>Apiservice&#45;&gt;AppModule</title>
<path fill="none" stroke="#000000" d="M213,-122.1061C213,-141.3391 213,-169 213,-169 213,-169 513.2387,-169 513.2387,-169"/>
<polygon fill="#000000" stroke="#000000" points="513.2387,-172.5001 523.2387,-169 513.2387,-165.5001 513.2387,-172.5001"/>
</g>
<!-- AuthService -->
<g id="node10" class="node">
<title>AuthService</title>
<ellipse fill="#fdb462" stroke="#000000" cx="83" cy="-104" rx="59.1083" ry="18"/>
<text text-anchor="middle" x="83" y="-99.8" font-family="Times,serif" font-size="14.00" fill="#000000">AuthService</text>
</g>
<!-- AuthService&#45;&gt;AppModule -->
<g id="edge9" class="edge">
<title>AuthService&#45;&gt;AppModule</title>
<path fill="none" stroke="#000000" d="M83,-122.2921C83,-144.2057 83,-178 83,-178 83,-178 513.0688,-178 513.0688,-178"/>
<polygon fill="#000000" stroke="#000000" points="513.0689,-181.5001 523.0688,-178 513.0688,-174.5001 513.0689,-181.5001"/>
</g>
</g>
</svg>
